<svg xmlns="http://www.w3.org/2000/svg" viewBox="0 0 600 600"><title>smiling-pile-of-poo-emoji</title><g id="Background"><rect y="-0.16" width="600" height="600" fill="#f0d7c0"/></g><g id="Poo"><ellipse cx="300" cy="462.77" rx="223" ry="26.63" fill="#a88363" fill-opacity="0.5"/><g id="Poo-2" data-name="Poo"><path d="M495.22,350.56c11,23.92,10.72,50-3.9,72.08-22,33.17-65.19,37.38-100.86,37.4-20.95,0-41.72-1.68-62.67-.06-26.78,2.07-53.21,7.47-80,9.89-40.23,3.64-83.08-2.82-117.79-25.17C115,435,102.71,421,98.25,403.13c-3.18-12.8-.14-25.79,5.56-37.28,3.55-7.14,7.83-15.43,13.89-20.77a42.87,42.87,0,0,0,7.64,8.15,1.5,1.5,0,0,0,2.09-2.16c-6.39-8.24-11.27-16.6-11.74-27.34a69.19,69.19,0,0,1,5.7-30.32c8.92-19.57,35.18-25.33,53.59-30.1a37.48,37.48,0,0,0,6,3.94c1.16.63,2.92-.73,2-2-6.46-8.77-13.95-15.86-16.62-26.9s1-21.69,8.68-29.53c7.25-7.37,17.36-10.37,26.92-13.1,7.59-2.18,15.58-4.65,23.6-6a65.77,65.77,0,0,1,12.78-1c2.25.06,2.22-3.47,0-3.58-3-.15-5.91-.08-8.8.06-9.54-14.2-3.47-28.82,7.14-41.08,11.23-13,27.39-18.72,43.63-21.73,16.72-3.1,31.93-.62,48.4,1.62,4.17.55,11.82,0,16.27-3-.15.37-.31.72-.48,1.07-2.56,5.19-7.66,8.79-12.13,14-2.59,3-4.52,6.36-4.35,10.42.32,7.43,9,12.56,14.43,15.72,9.54,5.56,20,9.35,29.74,14.4a31.83,31.83,0,0,1,12.19,10.32c7.65,10.58,5.64,20.84,3.72,32.76-.22,1.39,1.5,2.94,2.59,1.55a23.43,23.43,0,0,0,2.67-4.21h.24c.56-.06,1.13-.09,1.71-.14,24.47-1.74,50.49,9.06,63.91,30.65,6.77,10.89,6.55,25.29.75,36.51-4.92,9.5-14.65,13.91-21.83,21.15a1.33,1.33,0,0,0,1.26,2.22,40.37,40.37,0,0,0,4.46-1.52c.08.05.15.11.24.16l8,4.41c6.49,3.58,13,7.21,19.21,11.16C482.58,328.61,489.65,338.4,495.22,350.56Z" fill="#754823"/><path d="M505.77,381.57c-.38-4.6-.19-10-1.08-14.69a64.81,64.81,0,0,1-2.56,22,93.78,93.78,0,0,1-12.89,20.86c-10.64,12.57-24.91,22.12-40.17,28.15-16.08,6.35-33.45,8.87-50.67,8.74-10.77-.08-21.52-1.33-32.29-1.6-13.19-.33-26.38.16-39.55.85-25.17,1.34-50.25,3.93-75.42,5.29-21,1.14-43.52,2.41-64.22-1.94-28.31-5.93-59.65-22.52-75.26-47.66-6.41-10.31-9.59-23-6.6-34.65a37.82,37.82,0,0,1,2.51-11,4.65,4.65,0,0,0-2.78-2.12C94.61,368.71,88.07,392,95.13,409.73c4.8,9.79,12.08,18.51,19.93,25.74,23.84,21.94,55.57,35.14,87.68,37.73,50.45,4.08,100.82-6,151.16-7.56,21.24-.67,42.48,2.31,63.64-.23a137.4,137.4,0,0,0,29.4-6.87,9.86,9.86,0,0,1,4.41-3.15c20.24-7.47,40.6-20,49.65-40.32C505.63,404.66,506.71,392.84,505.77,381.57Z" fill="#633515"/><path d="M158.31,271.8c-15.12-.89-28.08,12.4-33.63,25.31-6.5,15.11-4,30.45,6.48,42.64,1.76,2,4.59-.56,3.53-2.73a49.27,49.27,0,0,1-2.11-36.58c4.58-13.29,14.59-20.32,26.16-27.06A.85.85,0,0,0,158.31,271.8Z" fill="#915f3e"/><path d="M176.33,379.71c-9.21-2.45-18.5-4.56-27.65-7.2-9.67-2.78-17.06-8.56-26-12.48-1.89-.82-4.78,1.08-3.22,3.22,13,17.85,36.52,18.1,56.46,19.69C177.78,383.09,178.09,380.17,176.33,379.71Z" fill="#915f3e"/><path d="M182.43,211.35a1.84,1.84,0,0,0-2.23-2.23c-6.62,1.79-9.54,10-10.31,16.14-1.13,9,1.11,16.15,7.52,22.44a2.38,2.38,0,0,0,3.72-2.88c-2.87-5.17-3.49-11.93-3.28-17.71S181.45,216.76,182.43,211.35Z" fill="#915f3e"/><path d="M417.15,221.83a.22.22,0,0,0-.11.41c8.91,6,17.92,10.39,25,18.75,7.27,8.56,9.21,19.85,12.77,30.16.74,2.13,3.95,2.39,4.58,0C465.66,247.07,441.09,221.3,417.15,221.83Z" fill="#915f3e"/><path d="M381.94,190.43c-2-4.69-5.95-10.77-11.84-9.54-1.61.34-1.76,2.27-.88,3.34a52.46,52.46,0,0,1,10.95,24.48c.32,1.91,3.23,1.73,3.67,0C385.49,202.22,384.56,196.59,381.94,190.43Z" fill="#915f3e"/><path d="M487.76,345.18c-.68-1.2-13.51-19.5-15.46-15.15-2.38,5.3,5.65,15.09,8.11,19.45,5.74,10.2,11.72,21.78,13.55,33.44.38,2.43,4,1.69,4.11-.56C498.65,368.89,494.39,356.82,487.76,345.18Z" fill="#915f3e"/><path d="M300,127.35c-7.78-.64-15.22-1.85-23.06-.92A76.28,76.28,0,0,0,254.31,133c-12.2,5.51-25.76,18-25.22,32.56a.06.06,0,0,0,.09.05c5.24-2.33,7.73-7.55,11.57-11.57a63.88,63.88,0,0,1,18.05-13.36c12.06-6,27.82-9.27,41.18-10.37A1.5,1.5,0,0,0,300,127.35Z" fill="#915f3e"/><path d="M491.94,332.41c-11.4-14.73-27.95-20.66-43.76-28.75,18.55-10.28,28.61-34.41,18.68-55C454,222,423.09,209,395.16,212c2.64-10.31-1.36-22-7.52-30.56s-16.43-12.22-25.45-16.36S340,156.72,334,148c-4.46-6.51,7.4-16.26,11.08-20.92,3.55-4.5,3.59-13.47,2.94-14.86-1.77-3.79-2.4.23-2.32.66,1.3,7.42-10.31,7.47-14.39,6.88a83,83,0,0,1-9.77-2.44c-7.22-2-14.89-2.23-22.32-2.29-17.9-.16-36.27,3.78-52.06,12.5-16.86,9.31-40.08,40.62-22.34,57.93-10,1-19.68,3.33-29.71,6-11,2.91-21.33,8.38-28.58,17.58-12,15.2-8.27,36.73,4,50.08-20.53,4.71-46.82,12.05-55.28,33.85-6.14,15.83-7.74,32.88-.69,46.85C102.38,349.44,92.69,369.15,91,384.4c-2.09,18.53,4.17,35.26,15.89,49.18,22,26.14,59.61,37.77,91.82,42.3,51.94,7.3,102.94-10.64,154.8-10.11,35.39.35,71.79,4.12,105.52-9.62,28.88-11.76,50.58-39.18,50.41-71.75C509.33,366.78,502.67,346.26,491.94,332.41ZM390.45,460c-20.94,0-41.72-1.68-62.66-.06-26.78,2.07-53.21,7.48-80,9.89-40.25,3.64-83.09-2.82-117.79-25.18C115,435,102.72,421,98.26,403.12c-3.18-12.79-.14-25.79,5.56-37.27,3.55-7.14,7.83-15.43,13.88-20.77a42.78,42.78,0,0,0,7.63,8.14,1.51,1.51,0,0,0,2.11-2.15c-6.41-8.24-11.28-16.6-11.76-27.33a69.67,69.67,0,0,1,5.71-30.33c8.91-19.57,35.19-25.32,53.6-30.11a37.87,37.87,0,0,0,6,4c1.17.61,2.93-.75,2-2-6.44-8.78-13.94-15.87-16.6-26.91s1-21.69,8.67-29.52c7.26-7.38,17.37-10.38,26.91-13.12,11.63-3.32,24.22-7.39,36.39-7.06,2.25.07,2.23-3.46,0-3.57-3-.14-5.9-.09-8.8.06-9.54-14.21-3.47-28.82,7.15-41.08,11.23-13,27.38-18.73,43.62-21.73,16.72-3.09,31.94-.63,48.41,1.61,4.17.57,11.82,0,16.26-3-2.35,5.8-7.83,9.51-12.61,15-2.59,3-4.51,6.36-4.34,10.41.31,7.44,9,12.55,14.43,15.73,9.53,5.55,19.94,9.34,29.72,14.38a31.74,31.74,0,0,1,12.19,10.33c7.66,10.58,5.64,20.84,3.73,32.76-.23,1.39,1.5,2.93,2.6,1.55a24.54,24.54,0,0,0,2.66-4.21h.24c25-2.37,51.88,8.42,65.62,30.51,6.77,10.89,6.55,25.29.74,36.51-4.92,9.5-14.64,13.91-21.82,21.15a1.34,1.34,0,0,0,1.27,2.23,41.66,41.66,0,0,0,4.45-1.53,1.56,1.56,0,0,0,.25.17c9.11,5.06,18.36,10,27.19,15.56,11.3,7.14,18.36,16.94,23.93,29.09,11,23.92,10.72,50-3.9,72.08C469.34,455.81,426.14,460,390.45,460Z" fill="#1e1b1c"/><path d="M385.67,330.89a2.71,2.71,0,0,0-1.59.39c-2.22,1.4-4.51,2.75-6.87,4-11.39-1.43-22.81,3.6-33.9,5.95-6.24,1.32-13.21,0-19.53,0-7.3.07-14.62.67-21.88,1.45-13.36,1.44-26.73,3-40.14,4a166.63,166.63,0,0,1-21.55.21,36.42,36.42,0,0,0-9.6.53,18.88,18.88,0,0,0-7,0l-5-1.73a22.65,22.65,0,0,0-10.93-1.11,59.59,59.59,0,0,0-6.87-3.21,52.45,52.45,0,0,1-7.36-4.21c-2.31-1.43-4.13,1.63-2.69,3.49a16.94,16.94,0,0,0,3.08,3,3.21,3.21,0,0,0-.5,3.35,37,37,0,0,0,3.66,5.88,6,6,0,0,0,.18,4.08c1.33,3.53,1.56,7.57,2.48,11.25,1.27,5.07,5.77,10.12,8.15,14.8,4.22,8.32,7.68,16.39,15.51,22,19.42,14,46.22,8.08,68.39,9.61,20.56,1.4,42.39,4.1,62.25-3.64,4.9-1.91,10.4-4.82,13-9.71,2.23-4.23,5.37-7.32,7.95-11.35,6.07-9.51,8.4-22.27,9.73-33.23a9.54,9.54,0,0,0-.52-4.45,15.7,15.7,0,0,0,1.72-6.17c.35-1.3.68-2.6,1-3.91.87-3.21,2.47-6.13,3.31-9.35A2.51,2.51,0,0,0,385.67,330.89Z" fill="#fff"/><path d="M230,325c24,6.23,43.45-14,48-35.59,3.81-18-.91-45.55-23-47.65-31.43-3-40.7,21.24-44.91,38.19C205.78,297.36,210.45,319.89,230,325Z" fill="#272223"/><path d="M214.16,282.38c2.76-16.29,13.52-29.95,28.58-34.81a1.43,1.43,0,0,0,.29,0c9.22-.62,17.32-1.56,23.5,6.71,5.46,7.28,6.79,16.88,6.49,25.74-.76,21.21-14.94,39.9-37.3,39.58C216.61,319.36,211.58,297.63,214.16,282.38Z" fill="#fff"/><path d="M248.54,294.34a10.45,10.45,0,1,0-10.45-10.45A10.45,10.45,0,0,0,248.54,294.34Zm1.27-17c5.25,0,5.25,8.16,0,8.16S244.55,277.31,249.81,277.31Z" fill="#272223"/><path d="M368.27,280.66c-4.21-17-13.48-41.17-44.92-38.19-22.13,2.1-26.84,29.62-23,47.64,4.56,21.64,24,41.82,48,35.6C367.92,320.62,372.59,298.09,368.27,280.66Z" fill="#272223"/><path d="M342.65,320.35c-22.36.32-36.54-18.37-37.3-39.57-.3-8.86,1-18.46,6.49-25.75,6.18-8.26,14.28-7.33,23.5-6.71a.86.86,0,0,0,.28,0c15.06,4.85,25.83,18.52,28.59,34.8C366.79,298.36,361.75,320.09,342.65,320.35Z" fill="#fff"/><path d="M340.28,284.61a10.45,10.45,0,1,0-10.45,10.46A10.44,10.44,0,0,0,340.28,284.61Zm-11.72,1.58c-5.26,0-5.26-8.15,0-8.15S333.82,286.19,328.56,286.19Z" fill="#272223"/><path d="M333.42,228.27c12.17-.12,20.16,6.31,29.67,13.11.83.6,1.58-.51,1.25-1.25-4.91-11.08-15-21.11-27.53-22.7-11.25-1.45-25.76,1.63-33.1,10.78a1.2,1.2,0,0,0,.52,2C314.09,233.1,323.49,228.37,333.42,228.27Z" fill="#1e1b1c"/><path d="M217.84,242.86c9.54-6.82,17.48-13.18,29.67-13.12,9.93.06,19.31,4.85,29.19,1.92a1.19,1.19,0,0,0,.51-2c-7.33-9.15-21.84-12.23-33.1-10.79-12.53,1.6-22.62,11.63-27.53,22.7C216.26,242.35,217,243.46,217.84,242.86Z" fill="#1e1b1c"/><path d="M182.52,341a34.66,34.66,0,0,0,5-5.76c9.25,21.35,11.95,46.93,25.46,65.5,17.67,24.28,51.41,15.61,75.18,17.84a249.23,249.23,0,0,0,47.15-.1c9.57-.92,19.36-2.74,27.46-9.22s12.87-17.32,16.68-27.66a243.23,243.23,0,0,0,7.63-24.95c2.44-9.68,6.16-19.9,7.42-29.84,0-.12,0-.24,0-.35a5.93,5.93,0,0,0,2.54,2.74,1.82,1.82,0,0,0,2.23-1.5c.69-2.78-2-5.85-3.59-7.56a11.16,11.16,0,0,0-7.58-3.76c-1.29-.07-1.95,2.38-.69,3a16.64,16.64,0,0,1,4.16,3c-32.28,21.48-69.72,15.71-105.34,19.07-31.71,3-66.95,8.5-96.39-8.93a27.74,27.74,0,0,0,2.26-2.56c.39-.53.82-1,1.23-1.53s.37-1.17.82-1.51c.63-.48.41-1.74-.39-1.7-3.15.08-5,2.3-7.12,4.89s-4.74,5.33-6.16,8.5C179.85,340.07,181.23,342.05,182.52,341Zm49.94,6.92c17.95.95,35.89-1.31,53.79-2.62,19.48-1.42,39-1,58.5-2.86a132,132,0,0,0,26.44-5.12c5-1.56,11.64-3.77,16.9-7.32-2,5.28-3.12,11.22-4.47,16.63s-2.67,10.8-4.13,16.14c-4.06.36-8.43,3.3-12.13,4.55-6.61,2.21-13.54,3.13-20.33,4.12-1.19.18-1.66,2.28-.31,2.67,6.65,1.92,13.32,1.55,20,.25a48.09,48.09,0,0,0,10.2-2.79c-3.78,12-8.87,25.31-18.07,32.66-7.8,6.24-18.15,7-27.23,7.79a257.82,257.82,0,0,1-45.82-.5c-24.21-2.3-56,6.6-72.05-20.79a77.25,77.25,0,0,1-6.27-14.48c11.32,9.43,35.4,5.33,45.61,3.65,1.08-.18.66-1.92-.23-2.06-8.25-1.22-16.36-.59-24.68-1-7.76-.42-19.08-1.58-23.65-10.14-3.1-10.51-6.13-21.13-11.86-29.29C204.28,345.67,219.35,347.23,232.46,347.93Z" fill="#272223"/><path d="M264.06,437.71c8.55,5.46,18.91,6.25,28.82,6.37,9.4.12,22.48-.06,31.08-4.36a1.35,1.35,0,0,0-.68-2.5c-3.65.19-7.3,1.37-10.91,2a146.37,146.37,0,0,1-17.61,1.7c-10.12.43-20.76-.51-30.24-4.28-.66-.26-1,.75-.46,1.1Z" fill="#272223"/></g></g></svg>